<?xml version="1.0" ?><!-- Uploaded to: SVG Repo, www.svgrepo.com, Generator: SVG Repo Mixer Tools -->
<svg xmlns="http://www.w3.org/2000/svg" class="w-4 h-4" fill="none" stroke="currentColor" viewBox="0 0 24 24" style="--darkreader-inline-stroke: currentColor;" data-darkreader-inline-stroke="">
	<path stroke-linecap="round" stroke-linejoin="round" stroke-width="2" d="M17 17h2a2 2 0 002-2v-4a2 2 0 00-2-2H5a2 2 0 00-2 2v4a2 2 0 002 2h2m2 4h6a2 2 0 002-2v-4a2 2 0 00-2-2H9a2 2 0 00-2 2v4a2 2 0 002 2zm8-12V5a2 2 0 00-2-2H9a2 2 0 00-2 2v4h10z"></path>
</svg>
